<?xml version="1.0" standalone="no"?>
<!DOCTYPE svg PUBLIC "-//W3C//DTD SVG 20010904//EN"
 "http://www.w3.org/TR/2001/REC-SVG-20010904/DTD/svg10.dtd">
<svg version="1.0" xmlns="http://www.w3.org/2000/svg"
 width="500pt" height="500pt" viewBox="0 0 500.000000 500.000000"
 preserveAspectRatio="xMidYMid meet">

<g transform="translate(0.000000,500.000000) scale(0.100000,-0.100000)"
fill="#fff" stroke="none">
<path d="M2245 3831 c-480 -53 -868 -405 -993 -900 -24 -95 -26 -125 -26 -281
0 -193 13 -278 66 -430 141 -399 474 -695 868 -771 83 -16 326 -16 408 0 222
43 423 153 592 321 248 247 372 566 356 915 -8 189 -40 319 -116 483 -128 273
-371 497 -653 602 -140 52 -349 77 -502 61z m263 -61 c206 -49 357 -182 472
-414 89 -181 132 -359 150 -631 27 -404 -60 -778 -235 -1005 -85 -110 -176
-173 -313 -216 -77 -25 -92 -26 -215 -22 -107 4 -144 10 -198 30 -95 35 -155
73 -228 142 -195 187 -303 471 -332 880 -27 371 44 712 196 951 86 134 239
252 376 289 80 22 228 20 327 -4z"/>
<path d="M1967 3433 c-15 -14 -5 -22 36 -28 72 -11 102 -24 135 -58 31 -32
121 -212 512 -1024 102 -211 188 -383 191 -383 10 0 68 163 89 253 11 44 22
109 25 145 l7 67 -210 431 c-115 237 -215 448 -222 468 -10 31 -9 41 3 60 18
27 82 46 156 46 39 0 51 4 51 15 0 13 -49 15 -383 15 -211 0 -387 -3 -390 -7z"/>
<path d="M1878 1889 c-29 -16 -22 -46 13 -58 27 -9 30 -13 19 -26 -15 -18 -41
-19 -59 -2 -11 10 -13 9 -9 -3 6 -19 55 -25 74 -9 23 19 16 39 -16 50 -16 6
-30 17 -30 24 0 18 30 27 46 14 9 -7 14 -8 14 -1 0 5 -7 13 -16 16 -19 7 -15
8 -36 -5z"/>
<path d="M2088 1889 c-29 -16 -22 -46 13 -58 27 -9 30 -13 19 -26 -15 -18 -41
-19 -59 -2 -11 10 -13 9 -9 -3 6 -19 55 -25 74 -9 23 19 16 39 -16 50 -16 6
-30 17 -30 24 0 18 30 27 46 14 9 -7 14 -8 14 -1 0 5 -7 13 -16 16 -19 7 -15
8 -36 -5z"/>
<path d="M2628 1840 c-20 -33 -33 -60 -29 -60 5 0 11 7 15 15 8 21 53 19 66
-2 8 -14 9 -9 4 22 -15 90 -16 90 -56 25z m42 -7 c0 -7 -9 -13 -20 -13 -17 0
-18 3 -8 25 8 19 14 22 20 13 4 -7 8 -19 8 -25z"/>
<path d="M2778 1889 c-29 -16 -22 -46 13 -58 27 -9 30 -13 19 -26 -15 -18 -41
-19 -59 -2 -11 10 -13 9 -9 -3 6 -19 55 -25 74 -9 23 19 16 39 -16 50 -16 6
-30 17 -30 24 0 18 30 27 46 14 9 -7 14 -8 14 -1 0 5 -7 13 -16 16 -19 7 -15
8 -36 -5z"/>
<path d="M1996 1873 c-10 -35 -18 -93 -13 -93 7 0 29 102 23 107 -2 3 -7 -4
-10 -14z"/>
<path d="M2209 1881 c10 -6 12 -22 8 -57 l-6 -49 12 48 c7 26 19 52 27 57 11
7 6 10 -20 10 -24 0 -31 -3 -21 -9z"/>
<path d="M2311 1840 c-6 -28 -11 -53 -11 -55 0 -3 17 -4 38 -4 30 2 32 3 10 6
-20 3 -28 10 -28 24 0 15 8 19 33 20 30 2 30 2 5 6 -42 6 -38 40 5 46 l32 4
-37 1 c-36 2 -36 1 -47 -48z"/>
<path d="M2460 1888 c0 -4 -9 -30 -20 -58 -23 -58 -17 -69 7 -12 l16 37 11
-39 11 -39 20 37 20 37 12 -38 11 -38 1 58 c1 62 -8 67 -34 16 -18 -35 -35
-38 -35 -6 0 19 -19 63 -20 45z"/>
<path d="M3630 3427 c0 -9 25 -17 73 -25 57 -9 77 -16 95 -37 12 -14 22 -34
22 -44 0 -9 -34 -116 -75 -236 -68 -199 -88 -285 -67 -285 4 0 45 109 91 243
46 133 95 259 108 280 29 46 82 72 166 82 39 4 57 11 57 21 0 12 -38 14 -235
14 -188 0 -235 -3 -235 -13z"/>
<path d="M3239 1614 c-25 -27 -132 -111 -177 -140 -2 -1 14 -36 35 -77 38 -75
38 -76 60 -59 15 11 39 66 73 161 27 79 49 146 47 147 -2 2 -19 -12 -38 -32z"/>
</g>
</svg>
